# xmcd CD database file
#
# Track frame offsets:
#	187
#	21942
#	38892
#	55637
#	77975
#	98425
#	124965
#	144382
#	162037
#	184180
#
# Disc length: 2723 seconds
#
# Revision: 0
# Processed by: cddbd v1.5.1PL0 Copyright (c) Steve Scherf et al.
# Submitted via: CDex 1.51
#
DISCID=7a0aa10a
DTITLE=DEEP'S - ロマンティストは殺される
DYEAR=1993
DGENRE=Gothic Rock
TTITLE0=第三京浜
TTITLE1=Love and Peace
TTITLE2=Vividに塗りつぶせ
TTITLE3=Sing My Rebel
TTITLE4=Body
TTITLE5=Outside Truth 〜夢見る不良少年へ〜
TTITLE6=Sexy and Wild Tiger
TTITLE7=ロマンティストは殺される
TTITLE8=1969
TTITLE9=Tokyo Swindle
EXTD=YEAR: 1993
EXTT0=
EXTT1=
EXTT2=
EXTT3=
EXTT4=
EXTT5=
EXTT6=
EXTT7=
EXTT8=
EXTT9=
PLAYORDER=
